<?xml version="1.0" encoding="UTF-8"?>
<svg version="1.1" xmlns="http://www.w3.org/2000/svg" width="609" height="609">
<path d="M0 0 C0.86500122 -0.00701431 1.73000244 -0.01402863 2.62121582 -0.02125549 C4.04029991 -0.00978989 4.04029991 -0.00978989 5.48805237 0.00190735 C6.48668304 -0.00174332 7.48531372 -0.00539398 8.51420593 -0.00915527 C11.82279853 -0.01727619 15.13090371 -0.00363663 18.43946838 0.01094055 C20.73488362 0.01145901 23.03029931 0.01094186 25.32571411 0.00942993 C30.14014806 0.00951973 34.95441482 0.01996347 39.76881409 0.03804016 C45.94401041 0.06071468 52.11896202 0.06127446 58.2941885 0.05452251 C63.03562601 0.05118267 67.77700761 0.05781316 72.51843452 0.06765175 C74.79544342 0.07150472 77.07245853 0.07265156 79.34947014 0.0710659 C82.5312016 0.07069553 85.71261815 0.08330845 88.89430237 0.0995636 C90.31035011 0.09584747 90.31035011 0.09584747 91.75500488 0.09205627 C92.62282593 0.09914108 93.49064697 0.10622589 94.38476562 0.11352539 C95.13673942 0.11557826 95.88871321 0.11763113 96.66347408 0.11974621 C99.04605663 0.40951344 100.68259109 1.19313787 102.75587463 2.3742218 C102.24415588 4.2492218 102.24415588 4.2492218 100.75587463 6.3742218 C98.10243151 7.2223812 95.65995267 7.85170991 92.94337463 8.3742218 C86.65415692 9.60360735 82.61142356 11.05030241 78.27931213 16.0929718 C67.00956077 33.57258617 69.45141797 59.77037537 69.37696838 79.6710968 C69.36074481 82.04474031 69.34355998 84.41837743 69.32546997 86.79200745 C69.28025466 92.97660861 69.24519951 99.16121899 69.21327209 105.34590149 C69.16093882 115.28344383 69.09600207 125.22089244 69.02505684 135.15831757 C69.00236743 138.61038353 68.98601567 142.06243764 68.97033691 145.51454163 C68.95692777 147.6328088 68.94331276 149.75107468 68.92945862 151.86933899 C68.92684525 152.81903564 68.92423187 153.7687323 68.92153931 154.74720764 C68.88053055 160.04278549 68.52268666 165.13290837 67.75587463 170.3742218 C68.45970276 169.66910461 69.16353088 168.96398743 69.88868713 168.23750305 C71.79339006 166.33212993 73.70540966 164.43452534 75.62306213 162.54219055 C76.6256901 161.54872498 77.62829402 160.55523515 78.63087463 159.5617218 C79.36757385 158.83759094 79.36757385 158.83759094 80.11915588 158.09883118 C82.85280986 155.3829282 85.44580945 152.60341503 87.95118713 149.67500305 C93.04830621 143.78588736 98.67059224 138.40200357 104.21290588 132.93769836 C109.31082317 127.90505091 114.29249084 122.84509975 118.95021057 117.39814758 C123.54320508 112.24996958 128.61326339 107.52455181 133.54884338 102.70820618 C138.92677857 97.42448847 138.92677857 97.42448847 143.56056213 91.50312805 C145.756791 88.37291573 147.74069248 86.67736386 150.75587463 84.3742218 C153.44028782 81.85031385 156.03295045 79.23671379 158.63087463 76.6242218 C159.3127887 75.94617493 159.99470276 75.26812805 160.69728088 74.5695343 C164.70082717 70.55836222 168.50208492 66.4336386 172.2021637 62.14179993 C174.72479471 59.27193058 177.48778596 56.67133852 180.25196838 54.0382843 C181.97937557 52.50074496 181.97937557 52.50074496 181.75587463 50.3742218 C182.49837463 49.9410968 183.24087463 49.5079718 184.00587463 49.0617218 C187.07798847 47.17656104 188.58240804 45.22689671 190.75587463 42.3742218 C191.53962463 41.6317218 192.32337463 40.8892218 193.13087463 40.1242218 C198.69495988 34.29518011 202.9252334 28.41484654 202.81837463 20.1867218 C202.8093512 19.28566711 202.80032776 18.38461243 202.79103088 17.45625305 C202.77942932 16.76918274 202.76782776 16.08211243 202.75587463 15.3742218 C201.43587463 15.7042218 200.11587463 16.0342218 198.75587463 16.3742218 C199.08587463 15.3842218 199.41587463 14.3942218 199.75587463 13.3742218 C194.96046385 9.65777845 191.7882735 8.86070558 185.75587463 8.3742218 C182.61450758 7.77990912 181.54485516 7.23354215 178.75587463 5.3742218 C178.75587463 4.0542218 178.75587463 2.7342218 178.75587463 1.3742218 C181.74341478 -0.11954827 184.80340105 0.22688415 188.0796051 0.22895813 C189.21157318 0.22392021 189.21157318 0.22392021 190.3664093 0.21878052 C192.86864352 0.20925823 195.37081091 0.2073267 197.87306213 0.20625305 C199.60940072 0.20304111 201.34573902 0.19967709 203.08207703 0.19616699 C206.72546516 0.19017236 210.36882957 0.18832741 214.01222229 0.18891907 C218.68193162 0.18902065 223.35148877 0.17537363 228.02116203 0.15814686 C231.60879719 0.14703004 235.19639555 0.14499977 238.78404617 0.14552879 C240.5056371 0.144348 242.22722895 0.13992065 243.94880295 0.13219643 C246.35709543 0.12240391 248.76505735 0.1252717 251.1733551 0.13130188 C251.88518951 0.12568237 252.59702393 0.12006287 253.33042908 0.11427307 C256.97395028 0.13746691 259.65706296 0.37449772 262.75587463 2.3742218 C262.09587463 3.6942218 261.43587463 5.0142218 260.75587463 6.3742218 C259.43587463 6.3742218 258.11587463 6.3742218 256.75587463 6.3742218 C256.75587463 7.0342218 256.75587463 7.6942218 256.75587463 8.3742218 C255.62149963 8.4360968 254.48712463 8.4979718 253.31837463 8.5617218 C233.97374865 11.16126142 217.36127132 33.35881597 204.34230042 46.52351379 C202.30238522 48.58254706 200.25495174 50.63401677 198.2072382 52.68529034 C195.73201224 55.16570335 193.26144964 57.65074138 190.79103088 60.13594055 C189.88675858 61.04446274 188.98248627 61.95298492 188.05081177 62.88903809 C183.69777038 67.2909817 179.49951128 71.75566069 175.46240234 76.44778442 C172.35053453 79.96065939 168.99882448 83.23290879 165.66212463 86.5304718 C164.91176941 87.27704041 164.16141418 88.02360901 163.38832092 88.7928009 C160.21370959 91.95123293 157.03311548 95.10361459 153.8530426 98.25654602 C151.51647102 100.57491926 149.18299464 102.896377 146.84962463 105.2179718 C146.14213074 105.91716736 145.43463684 106.61636292 144.70570374 107.33674622 C140.74739878 111.275755 136.97551857 115.31136872 133.3470459 119.55696106 C130.6486494 122.63877264 127.73521372 125.50091762 124.81837463 128.3742218 C124.2299176 128.95816711 123.64146057 129.54211243 123.03517151 130.14375305 C121.6110767 131.55626985 120.18382214 132.9655999 118.75587463 134.3742218 C119.67626526 134.1576593 120.59665588 133.9410968 121.54493713 133.7179718 C138.48105458 129.99271583 155.5932795 129.72061709 170.75587463 139.3742218 C173.60612087 141.5270179 176.35970526 143.71701721 178.75587463 146.3742218 C178.75587463 147.0342218 178.75587463 147.6942218 178.75587463 148.3742218 C179.74587463 148.7042218 180.73587463 149.0342218 181.75587463 149.3742218 C193.34811882 165.25208354 198.67471627 186.68750783 204.72521973 205.14186096 C204.98283585 205.92752441 205.24045197 206.71318787 205.50587463 207.5226593 C205.76667313 208.31815186 206.02747162 209.11364441 206.2961731 209.9332428 C218.98888573 259.44473025 218.98888573 259.44473025 248.94337463 297.1867218 C254.16849708 298.81421896 259.31006453 299.11489751 264.75587463 299.3742218 C265.08587463 300.6942218 265.41587463 302.0142218 265.75587463 303.3742218 C254.08775176 311.15297039 235.87490944 311.62300439 222.40821838 309.3507843 C206.50684535 305.09908028 195.9007914 295.99234006 187.65431213 281.86250305 C170.75587463 250.81249341 170.75587463 250.81249341 170.75587463 239.3742218 C170.09587463 239.0442218 169.43587463 238.7142218 168.75587463 238.3742218 C168.3226652 236.39034475 167.89652359 234.40481393 167.49269104 232.41474915 C165.82507106 225.53319208 163.27047169 218.86896521 160.94337463 212.1867218 C160.41624767 210.66017898 159.88955214 209.1334871 159.36329651 207.60664368 C158.08105449 203.89185586 156.78722977 200.18124338 155.48817444 196.4723053 C154.78603578 194.46063532 154.0920509 192.44631344 153.39942932 190.43135071 C151.18969893 184.0845234 148.88805713 178.00774907 145.63087463 172.1242218 C145.29700745 171.48871399 144.96314026 170.85320618 144.61915588 170.19844055 C142.90736974 167.03667086 141.8033832 165.40589418 138.75587463 163.3742218 C138.75587463 162.3842218 138.75587463 161.3942218 138.75587463 160.3742218 C137.76587463 160.0442218 136.77587463 159.7142218 135.75587463 159.3742218 C135.42587463 158.3842218 135.09587463 157.3942218 134.75587463 156.3742218 C132.88200247 155.57209552 132.88200247 155.57209552 130.69337463 155.1867218 C129.95989807 155.02816711 129.22642151 154.86961243 128.47071838 154.70625305 C127.90481995 154.59668274 127.33892151 154.48711243 126.75587463 154.3742218 C126.75587463 153.7142218 126.75587463 153.0542218 126.75587463 152.3742218 C115.82812842 151.88613388 107.11284041 151.9108203 97.81837463 158.4367218 C96.63711536 159.54638961 95.46439735 160.66569909 94.31837463 161.8117218 C92.80841292 163.32168352 91.23525949 164.60477175 89.56837463 165.9367218 C88.17618713 167.1432843 88.17618713 167.1432843 86.75587463 168.3742218 C86.75587463 169.0342218 86.75587463 169.6942218 86.75587463 170.3742218 C85.99274963 170.8279718 85.22962463 171.2817218 84.44337463 171.7492218 C81.66925434 173.42659686 80.62887407 174.79884757 78.75587463 177.3742218 C77.10584636 178.72809116 75.43843593 180.06100323 73.75587463 181.3742218 C70.32210103 184.33108241 69.35059958 185.91378471 68.75587463 190.3742218 C68.61460768 193.68589534 68.61603797 196.99352491 68.62306213 200.30781555 C68.62087929 201.77452194 68.62087929 201.77452194 68.61865234 203.27085876 C68.61640651 206.45118557 68.62268063 209.63140566 68.63087463 212.8117218 C68.63369949 214.43266251 68.63369949 214.43266251 68.63658142 216.08634949 C65.78887203 257.65707401 65.78887203 257.65707401 79.14259338 294.98750305 C83.8728608 299.02669866 89.75952758 299.58094834 95.74415588 300.50312805 C98.75587463 301.3742218 98.75587463 301.3742218 100.17384338 303.46406555 C100.46194885 304.4095929 100.46194885 304.4095929 100.75587463 305.3742218 C98.75587463 307.3742218 98.75587463 307.3742218 96.93242455 307.62031746 C96.1894594 307.61847387 95.44649426 307.61663029 94.68101501 307.61473083 C93.82843613 307.61748016 92.97585724 307.62022949 92.09744263 307.62306213 C91.16020859 307.61587158 90.22297455 307.60868103 89.25733948 307.60127258 C88.2719368 307.60156464 87.28653412 307.60185669 86.27127075 307.60215759 C83.00302936 307.60076044 79.73501387 307.58518107 76.46681213 307.5695343 C74.20522689 307.56580554 71.94364004 307.56295793 69.68205261 307.56095886 C63.72091739 307.55331161 57.75987917 307.53365375 51.79878235 307.5115509 C45.71938896 307.49111597 39.63997995 307.48196219 33.56056213 307.47187805 C21.62562361 307.45040889 9.69075718 307.4162598 -2.24412537 307.3742218 C-2.57412537 306.0542218 -2.90412537 304.7342218 -3.24412537 303.3742218 C-1.66212905 302.72512026 -0.07846813 302.08007486 1.50587463 301.4367218 C2.38759338 301.07707336 3.26931213 300.71742493 4.17774963 300.34687805 C6.75587463 299.3742218 6.75587463 299.3742218 8.89649963 298.8507843 C13.17559692 297.75404088 16.17473236 295.07159254 18.94337463 291.7492218 C24.5111761 281.38159149 24.91555181 270.3852051 25.10743713 258.8742218 C25.13108841 257.56348694 25.15473969 256.25275208 25.17910767 254.90229797 C25.25688614 250.39307713 25.3197567 245.88369479 25.38087463 241.3742218 C25.39744802 240.19596832 25.39744802 240.19596832 25.41435623 238.99391174 C25.93492012 201.55354145 25.72559359 164.11189296 25.4884305 126.6701746 C25.45276954 121.0111552 25.4214248 115.35212271 25.39167786 109.69306946 C25.35440776 102.6759857 25.30919623 95.65899813 25.25475806 88.64202595 C25.22656689 85.00545453 25.20091082 81.36892206 25.18292427 77.73228455 C27.21905703 45.72035656 27.21905703 45.72035656 17.23243713 16.6945343 C16.5015387 16.04097961 16.5015387 16.04097961 15.75587463 15.3742218 C15.19899963 14.7142218 14.64212463 14.0542218 14.06837463 13.3742218 C10.13379708 9.97134391 5.77655315 8.29497951 0.56837463 8.4992218 C-2.24412537 8.3742218 -2.24412537 8.3742218 -5.11912537 5.8742218 C-6.17100037 4.6367218 -6.17100037 4.6367218 -7.24412537 3.3742218 C-4.92540346 0.60129423 -3.59445445 -0.00080221 0 0 Z " fill="#BEA76C" transform="translate(55.24412536621094,124.62577819824219)"/>
<path d="M0 0 C0.8749232 -0.00085442 1.7498464 -0.00170885 2.65128243 -0.00258917 C5.5762279 -0.00423326 8.50111574 0.00125987 11.42605591 0.00672913 C13.52543639 0.00701125 15.62481697 0.00685276 17.72419739 0.00628662 C23.41995007 0.00599965 29.11568171 0.01188025 34.8114295 0.01886058 C40.76517473 0.02511074 46.71892045 0.02569923 52.67266846 0.02688599 C63.94537569 0.02999439 75.21807322 0.03820118 86.49077618 0.04823548 C99.32501083 0.05941183 112.15924595 0.06491091 124.99348426 0.06993091 C151.39305128 0.08038419 177.79260969 0.09797415 204.19216919 0.12025452 C204.83124238 2.65254053 205.468764 5.18520079 206.10542297 7.71809387 C206.37415073 8.78190938 206.37415073 8.78190938 206.64830732 9.86721611 C208.21528579 16.10979952 209.56020355 22.38374415 210.80545044 28.69837952 C211.02412277 29.79825195 211.2427951 30.89812439 211.46809387 32.03132629 C211.92132258 34.31949536 212.37239385 36.60809281 212.82131958 38.89710999 C213.5118951 42.40698044 214.21610016 45.91395405 214.92068481 49.42103577 C215.36226919 51.65915358 215.80305439 53.89742926 216.24295044 56.13587952 C216.55997673 57.70296661 216.55997673 57.70296661 216.88340759 59.30171204 C217.07077988 60.2708252 217.25815216 61.23993835 217.45120239 62.23841858 C217.61900711 63.08728638 217.78681183 63.93615417 217.95970154 64.81074524 C218.20037267 67.2017541 217.92456185 68.84806371 217.19216919 71.12025452 C214.94216919 71.00697327 214.94216919 71.00697327 212.19216919 70.12025452 C210.12966919 67.38978577 210.12966919 67.38978577 208.19216919 63.93275452 C205.49705784 59.2689141 202.75858249 55.15593272 199.19216919 51.12025452 C198.22666194 49.81302279 197.2688524 48.50008443 196.31716919 47.18275452 C192.56870753 42.1363759 188.43639902 37.61640774 183.19216919 34.12025452 C181.83091919 32.82087952 181.83091919 32.82087952 180.44216919 31.49525452 C161.29898954 14.91807554 136.07933199 14.085159 112.04763794 13.80384827 C110.5416363 13.78321424 109.03563961 13.76221642 107.52964783 13.74087524 C103.61224435 13.6863189 99.69479458 13.63662372 95.77731323 13.58802795 C91.76126098 13.53731997 87.74527394 13.48189427 83.72927856 13.42689514 C75.88363104 13.32012938 68.03792838 13.21851191 60.19216919 13.12025452 C60.16847983 27.1014908 60.1510848 41.08272384 60.14035702 55.06397629 C60.13520092 61.56028198 60.12824064 68.05657392 60.11672974 74.5528717 C60.06687398 103.42463501 60.09143134 132.26616257 61.19216919 161.12025452 C61.72471313 160.44768616 62.25725708 159.7751178 62.80593872 159.08216858 C63.5134729 158.19239319 64.22100708 157.3026178 64.94998169 156.38587952 C65.99629761 155.06765198 65.99629761 155.06765198 67.06375122 153.72279358 C75.76688759 143.0809682 85.33817627 136.11124751 99.19216919 134.12025452 C114.815611 132.90152449 128.58816561 136.97200869 143.19216919 142.24525452 C145.71087118 143.14994418 148.23208699 144.04665513 150.75466919 144.94056702 C151.84908325 145.33518127 152.94349731 145.72979553 154.07107544 146.1363678 C164.28346936 149.35570036 173.92372085 148.86687737 183.46560669 143.94837952 C186.49713533 142.12270056 188.93878461 140.38811821 191.37966919 137.80775452 C193.19216919 136.12025452 193.19216919 136.12025452 195.94216919 135.87025452 C196.68466919 135.95275452 197.42716919 136.03525452 198.19216919 136.12025452 C197.70261773 142.25688545 196.31266762 146.97451787 193.62966919 152.49525452 C193.27324341 153.23622375 192.91681763 153.97719299 192.54959106 154.74061584 C185.70120192 168.51412257 175.6079187 177.68277367 161.08279419 182.87416077 C148.69322104 186.20444077 130.71623998 185.29135936 119.19216919 179.12025452 C117.16107097 178.38216312 115.11832733 177.6756141 113.06716919 176.99525452 C112.01271606 176.64205139 110.95826294 176.28884827 109.87185669 175.92494202 C107.33923614 175.0243865 107.33923614 175.0243865 105.19216919 175.12025452 C105.19216919 174.46025452 105.19216919 173.80025452 105.19216919 173.12025452 C91.57977406 170.07887339 80.59572698 168.51667172 68.23513794 175.90150452 C66.19216919 177.12025452 66.19216919 177.12025452 63.99295044 177.96400452 C61.9944426 178.97002469 61.9944426 178.97002469 61.58869934 181.1632843 C61.07729755 184.97686533 61.0446959 188.74822841 61.04690552 192.58802795 C61.04354691 193.42951889 61.04018829 194.27100983 61.03672791 195.13800049 C61.0272367 197.91855859 61.02527487 200.69905622 61.02420044 203.47962952 C61.02098361 205.42715987 61.01761922 207.37468999 61.01411438 209.32221985 C61.00812556 213.41099099 61.00627393 217.49974102 61.00686646 221.58851624 C61.00696738 226.78260291 60.99338672 231.97655073 60.97609425 237.17060471 C60.96486777 241.19968768 60.96295058 245.22873839 60.96347618 249.25783539 C60.96230928 251.16963931 60.95796158 253.08144443 60.95014381 254.99323273 C60.70249296 286.03089394 60.70249296 286.03089394 74.62966919 312.87025452 C79.45334836 316.64475148 86.36493903 317.69138575 92.19216919 319.12025452 C92.19216919 320.44025452 92.19216919 321.76025452 92.19216919 323.12025452 C91.19216919 324.12025452 91.19216919 324.12025452 89.42929745 324.24330235 C88.65591313 324.24238055 87.88252882 324.24145876 87.08570862 324.24050903 C86.20084778 324.2418837 85.31598694 324.24325836 84.40431213 324.24467468 C83.42607986 324.24107941 82.4478476 324.23748413 81.43997192 324.23377991 C80.41570099 324.23392593 79.39143005 324.23407196 78.33612061 324.23422241 C74.9326469 324.2335228 71.52922715 324.22572815 68.12576294 324.21791077 C65.77306651 324.21604676 63.42036969 324.21462278 61.06767273 324.21362305 C54.86160214 324.20979651 48.65555479 324.19996507 42.44949341 324.18891907 C36.12218541 324.17870786 29.79487367 324.17412605 23.46755981 324.16908264 C11.04241937 324.15834292 -1.38270379 324.14126488 -13.80783081 324.12025452 C-14.46783081 322.80025452 -15.12783081 321.48025452 -15.80783081 320.12025452 C-14.97251831 319.86502014 -14.97251831 319.86502014 -14.12033081 319.60462952 C-2.23448471 315.88231572 -2.23448471 315.88231572 6.19216919 307.12025452 C14.36271711 290.92150272 13.34463696 271.78129705 13.32156372 254.09144592 C13.32292231 252.32179224 13.3247048 250.55213884 13.32687378 248.78248596 C13.33140231 244.0080471 13.32967519 239.23363005 13.32649469 234.45919085 C13.32393698 229.40906757 13.32631898 224.35894599 13.32788086 219.30882263 C13.32969702 210.8037432 13.32731532 202.29867247 13.32254028 193.79359436 C13.31714434 184.07270174 13.31882821 174.35183025 13.32436669 164.63093817 C13.32896883 156.20547009 13.32951302 147.78000822 13.32692802 139.35453928 C13.32539769 134.35901762 13.32507809 129.36350573 13.32846451 124.36798477 C13.34015312 104.29854957 13.23524725 84.24060145 12.74636841 64.17640686 C12.71725038 62.93496662 12.71725038 62.93496662 12.68754411 61.66844678 C12.62003016 47.32808296 12.62003016 47.32808296 11.19216919 33.12025452 C10.53216919 32.79025452 9.87216919 32.46025452 9.19216919 32.12025452 C9.85216919 32.12025452 10.51216919 32.12025452 11.19216919 32.12025452 C10.59755966 30.20060143 9.99107658 28.28462373 9.37966919 26.37025452 C9.04322388 25.30291077 8.70677856 24.23556702 8.36013794 23.13587952 C7.2615092 20.29928625 6.25655688 18.33814796 4.19216919 16.12025452 C2.92373169 15.90369202 2.92373169 15.90369202 1.62966919 15.68275452 C0.82529419 15.49712952 0.02091919 15.31150452 -0.80783081 15.12025452 C-1.06435425 14.31587952 -1.32087769 13.51150452 -1.58517456 12.68275452 C-2.57342845 9.84216617 -2.57342845 9.84216617 -5.55783081 9.11634827 C-6.63033081 8.93201233 -7.70283081 8.74767639 -8.80783081 8.55775452 C-12.05783081 7.99134827 -12.05783081 7.99134827 -14.80783081 7.12025452 C-16.18283081 5.03041077 -16.18283081 5.03041077 -16.80783081 3.12025452 C-12.62679763 -1.06077866 -5.59602169 -0.02009174 0 0 Z " fill="#BCA56A" transform="translate(333.8078308105469,157.87974548339844)"/>
<path d="M0 0 C0.33 0 0.66 0 1 0 C1.74494274 14.12357594 2.14979307 28.20131448 2.14526367 42.34350586 C2.14826771 44.26327579 2.15167301 46.18304513 2.15544128 48.10281372 C2.16415052 53.24078728 2.16661353 58.37874412 2.16725707 63.51672435 C2.16797409 66.73884356 2.17012036 69.96095868 2.17275429 73.18307686 C2.18195821 84.45644521 2.18609467 95.72980185 2.18530273 107.00317383 C2.18470047 117.46432952 2.19529415 127.9254339 2.2110464 138.38657659 C2.22415659 147.41902943 2.22948531 156.45146552 2.22884732 165.48392779 C2.22859374 170.85693307 2.2313685 176.22989243 2.24202538 181.60288811 C2.25176754 186.65020568 2.25174398 191.6974339 2.24450874 196.74475479 C2.24347109 198.58485229 2.24577643 200.42495555 2.2518692 202.26504326 C2.33544269 229.27453067 2.33544269 229.27453067 -2 239 C-2.66 239 -3.32 239 -4 239 C-3.86042877 238.14232529 -3.72085754 237.28465057 -3.57705688 236.40098572 C-2.30727578 228.16041502 -1.66903685 220.14724322 -1.5859375 211.81640625 C-1.56657135 210.51485092 -1.5472052 209.21329559 -1.5272522 207.87229919 C-1.47459041 204.21375181 -1.43533791 200.55516612 -1.39910889 196.89642334 C-1.37480158 194.54329109 -1.34662967 192.19023392 -1.31738281 189.8371582 C-0.99656303 163.65115031 -0.97128618 137.46488938 -0.9765625 111.27734375 C-0.97669452 110.47418771 -0.97682654 109.67103167 -0.97696257 108.84353757 C-0.97989484 92.44798095 -0.99002455 76.05244733 -1.02264106 59.65692073 C-1.03515413 53.35851175 -1.04477382 47.06010278 -1.05241501 40.76168603 C-1.058085 36.34565605 -1.06830499 31.92966753 -1.08202517 27.5136556 C-1.08765904 25.45270002 -1.09100858 23.39175612 -1.09331703 21.33079433 C-1.09612485 18.83427429 -1.102546 16.33775459 -1.11330223 13.84125614 C-1.11337587 12.74258937 -1.11344952 11.6439226 -1.11352539 10.51196289 C-1.115746 9.56204971 -1.11796661 8.61213654 -1.12025452 7.63343811 C-0.99973224 4.99413627 -0.58817874 2.57214168 0 0 Z " fill="#9C8856" transform="translate(82,171)"/>
<path d="M0 0 C1.67444181 2.93341756 2.24872395 5.02318161 2.24050903 8.39129639 C2.24325836 9.26345291 2.24600769 10.13560944 2.24884033 11.03419495 C2.24164978 11.98293991 2.23445923 12.93168488 2.22705078 13.90917969 C2.22734283 14.91438156 2.22763489 15.91958344 2.22793579 16.95524597 C2.22654254 20.27754348 2.21098133 23.59961667 2.1953125 26.921875 C2.19158236 29.22544228 2.18873539 31.52901114 2.18673706 33.83258057 C2.1791007 39.8956134 2.15945209 45.95855043 2.1373291 52.02154541 C2.11687079 58.20836084 2.10773537 64.39519175 2.09765625 70.58203125 C2.07620629 82.72139626 2.04207022 94.86069016 2 107 C1.67 107 1.34 107 1 107 C1 104.36 1 101.72 1 99 C0.34 99 -0.32 99 -1 99 C-1.02344164 89.48806131 -1.04107383 79.97613296 -1.05181217 70.46417141 C-1.05697281 66.04470722 -1.06394206 61.62526316 -1.07543945 57.20581055 C-1.12385133 38.11248898 -1.1329461 19.06849186 0 0 Z " fill="#9A8555" transform="translate(122,175)"/>
<path d="M0 0 C1.29750183 -0.00845947 1.29750183 -0.00845947 2.62121582 -0.01708984 C4.04029991 -0.01101715 4.04029991 -0.01101715 5.48805237 -0.00482178 C6.98599838 -0.01007874 6.98599838 -0.01007874 8.51420593 -0.01544189 C11.822697 -0.02426043 15.13097505 -0.0184091 18.43946838 -0.01165771 C20.73488404 -0.01300443 23.03029943 -0.01494502 25.32571411 -0.01745605 C30.14010835 -0.02040758 34.95442845 -0.01610912 39.76881409 -0.0067749 C45.94399901 0.00461317 52.11900998 -0.00193566 58.2941885 -0.01391983 C63.0356172 -0.02114311 67.77700459 -0.01884822 72.51843452 -0.01366425 C74.7954466 -0.01232872 77.07246242 -0.01397209 79.34947014 -0.01862335 C82.53118208 -0.02369546 85.7126115 -0.01596819 88.89430237 -0.00482178 C90.31035011 -0.01089447 90.31035011 -0.01089447 91.75500488 -0.01708984 C92.62282593 -0.0114502 93.49064697 -0.00581055 94.38476562 0 C95.51272631 0.00113108 95.51272631 0.00113108 96.66347408 0.002285 C99.04756348 0.28905278 100.68191577 1.07199353 102.75587463 2.25396729 C102.07618713 4.20709229 102.07618713 4.20709229 100.75587463 6.25396729 C98.37306213 6.86334229 98.37306213 6.86334229 95.63087463 7.00396729 C94.26575745 7.08904541 94.26575745 7.08904541 92.87306213 7.17584229 C92.17439026 7.20162354 91.47571838 7.22740479 90.75587463 7.25396729 C90.26087463 6.26396729 90.26087463 6.26396729 89.75587463 5.25396729 C92.39587463 4.59396729 95.03587463 3.93396729 97.75587463 3.25396729 C65.08587463 3.25396729 32.41587463 3.25396729 -1.24412537 3.25396729 C-1.57412537 4.24396729 -1.90412537 5.23396729 -2.24412537 6.25396729 C-4.18162537 5.94146729 -4.18162537 5.94146729 -6.24412537 5.25396729 C-6.57412537 4.26396729 -6.90412537 3.27396729 -7.24412537 2.25396729 C-4.14782847 0.18976936 -3.50134834 0.00351278 0 0 Z " fill="#BEA76B" transform="translate(55.24412536621094,124.74603271484375)"/>
<path d="M0 0 C2.46346397 0.39559275 4.91843393 0.81516987 7.375 1.25 C8.07367188 1.35957031 8.77234375 1.46914063 9.4921875 1.58203125 C14.6695235 2.52789071 14.6695235 2.52789071 16.4765625 5.109375 C16.64929688 5.73328125 16.82203125 6.3571875 17 7 C15 9 15 9 13.17654991 9.24609566 C12.43358477 9.24425207 11.69061962 9.24240849 10.92514038 9.24050903 C10.07256149 9.24325836 9.2199826 9.24600769 8.34156799 9.24884033 C7.40433395 9.24164978 6.46709991 9.23445923 5.50146484 9.22705078 C4.51606216 9.22734283 3.53065948 9.22763489 2.51539612 9.22793579 C-0.75284528 9.22653864 -4.02086076 9.21095927 -7.2890625 9.1953125 C-9.55064774 9.19158374 -11.81223459 9.18873612 -14.07382202 9.18673706 C-20.03495724 9.17908981 -25.99599547 9.15943194 -31.95709229 9.1373291 C-38.03648567 9.11689417 -44.11589469 9.10774038 -50.1953125 9.09765625 C-62.13025102 9.07618709 -74.06511745 9.042038 -86 9 C-86.33 7.68 -86.66 6.36 -87 5 C-85.35 4.34 -83.7 3.68 -82 3 C-81.34 3.66 -80.68 4.32 -80 5 C-80.99 5.33 -81.98 5.66 -83 6 C-36.47 6.495 -36.47 6.495 11 7 C11 6.01 11 5.02 11 4 C8.03 4 5.06 4 2 4 C1.01 2.02 1.01 2.02 0 0 Z " fill="#534526" transform="translate(139,423)"/>
<path d="M0 0 C0.33 0 0.66 0 1 0 C1 29.37 1 58.74 1 89 C0.67 89 0.34 89 0 89 C0 81.08 0 73.16 0 65 C-0.66 65 -1.32 65 -2 65 C-2.02526605 57.32788798 -2.04283123 49.6557866 -2.05493164 41.98364258 C-2.05997377 39.37133381 -2.06680725 36.75902789 -2.07543945 34.14672852 C-2.08751036 30.40119732 -2.09322935 26.65570328 -2.09765625 22.91015625 C-2.10281754 21.73413345 -2.10797882 20.55811066 -2.11329651 19.34645081 C-2.11340981 17.72488319 -2.11340981 17.72488319 -2.11352539 16.07055664 C-2.115746 15.11347305 -2.11796661 14.15638947 -2.12025452 13.17030334 C-2 11 -2 11 -1 10 C-0.76712992 8.31816052 -0.58735834 6.6287584 -0.4375 4.9375 C-0.35371094 4.01839844 -0.26992188 3.09929687 -0.18359375 2.15234375 C-0.12300781 1.44207031 -0.06242187 0.73179687 0 0 Z " fill="#8F7C4D" transform="translate(393,342)"/>
<path d="M0 0 C2.07840371 -0.00678313 4.15679935 -0.01698261 6.23516846 -0.03076172 C17.26044369 -0.09801666 27.92961908 -0.10258214 38.76687622 2.17724609 C38.10687622 2.83724609 37.44687622 3.49724609 36.76687622 4.17724609 C34.40313936 4.17427707 32.15531398 4.04361464 29.80593872 3.83740234 C20.65829473 3.18620217 11.51921495 2.98894952 2.35281372 2.86083984 C1.25366009 2.84492735 1.25366009 2.84492735 0.13230133 2.82869339 C-4.42099404 2.76321529 -8.97434699 2.70321908 -13.52774048 2.64501953 C-17.45040636 2.59406114 -21.37301119 2.53877016 -25.29562378 2.48388672 C-32.94140488 2.37752743 -40.58723805 2.27583091 -48.23312378 2.17724609 C-48.23312378 1.84724609 -48.23312378 1.51724609 -48.23312378 1.17724609 C-32.15998588 0.32568912 -16.09331773 0.04726059 0 0 Z " fill="#5D4F31" transform="translate(443.2331237792969,168.82275390625)"/>
<path d="M0 0 C0.33 0.99 0.66 1.98 1 3 C-2.08809695 4.76462683 -3.23312136 5 -7 5 C-7 5.99 -7 6.98 -7 8 C9.17 8 25.34 8 42 8 C41.67 8.66 41.34 9.32 41 10 C23.18 10 5.36 10 -13 10 C-13.66 8.68 -14.32 7.36 -15 6 C-14.41992188 5.81824219 -13.83984375 5.63648438 -13.2421875 5.44921875 C-8.60852707 3.9581894 -4.30237645 2.31666424 0 0 Z " fill="#A48B54" transform="translate(333,472)"/>
<path d="M0 0 C1.50606515 3.01213029 1.12160331 6.11282622 1.09765625 9.4140625 C1.0962413 10.14370209 1.09482635 10.87334167 1.09336853 11.62509155 C1.08776531 13.95843585 1.07521235 16.29168464 1.0625 18.625 C1.05748541 20.20572778 1.05292243 21.78645707 1.04882812 23.3671875 C1.03779484 27.24482854 1.02052811 31.12239807 1 35 C1.33 35 1.66 35 2 35 C2.54429239 64.78488896 2.54429239 64.78488896 -2 75 C-2.66 75 -3.32 75 -4 75 C-3.8600209 74.15709915 -3.72004181 73.3141983 -3.57582092 72.445755 C-2.2209199 63.75353231 -1.68095962 55.34432597 -1.62109375 46.54296875 C-1.59513657 44.54272742 -1.56917456 42.54248613 -1.5429163 40.54224873 C-1.50892302 37.78930026 -1.48307772 35.03630085 -1.45739746 32.28326416 C-1.41112201 27.40915276 -1.35650998 22.5351472 -1.29469299 17.66120911 C-1.26271632 15.07491394 -1.23583241 12.48854994 -1.21446228 9.90214539 C-1.20097244 8.74616348 -1.1874826 7.59018158 -1.17358398 6.39916992 C-1.16407211 5.37772385 -1.15456024 4.35627777 -1.14476013 3.30387878 C-1 1 -1 1 0 0 Z " fill="#8C774A" transform="translate(82,335)"/>
<path d="M0 0 C0.33 0 0.66 0 1 0 C1 19.47 1 38.94 1 59 C0.01 59.495 0.01 59.495 -1 60 C-1.02468447 55.19450253 -1.04285255 50.38904182 -1.05493164 45.58349609 C-1.05996621 43.94807289 -1.06679427 42.3126542 -1.07543945 40.67724609 C-1.08754335 38.32909025 -1.093237 35.98099381 -1.09765625 33.6328125 C-1.10281754 32.89942657 -1.10797882 32.16604065 -1.11329651 31.41043091 C-1.11387171 26.22774341 -1.11387171 26.22774341 0 24 C-0.66 24 -1.32 24 -2 24 C-2.09909001 16.25996896 -2.1692368 8.66499677 -1 1 C-0.67 0.67 -0.34 0.34 0 0 Z " fill="#B79D60" transform="translate(83,311)"/>
<path d="M0 0 C17.16 0 34.32 0 52 0 C54.25 6.75 54.25 6.75 54 11 C53.34 11 52.68 11 52 11 C51.34 8.36 50.68 5.72 50 3 C25.25 2.505 25.25 2.505 0 2 C0 1.34 0 0.68 0 0 Z " fill="#B59B5A" transform="translate(486,158)"/>
<path d="M0 0 C1.6168716 2.4253074 2.52368657 4.13862079 3.48046875 6.80957031 C3.75415283 7.5675592 4.02783691 8.3255481 4.30981445 9.10650635 C4.7442688 10.32995758 4.7442688 10.32995758 5.1875 11.578125 C5.49067139 12.42292419 5.79384277 13.26772339 6.10620117 14.13812256 C6.74690013 15.92618389 7.3856039 17.71496121 8.02246094 19.50439453 C8.9919303 22.22733471 9.96808479 24.94780463 10.9453125 27.66796875 C11.56810832 29.40871111 12.19051661 31.14959218 12.8125 32.890625 C13.10213623 33.69816223 13.39177246 34.50569946 13.69018555 35.33770752 C15.29490924 39.85604162 16.73609575 44.3744187 18 49 C16.515 48.505 16.515 48.505 15 48 C13.96970841 45.82702138 13.15334236 43.76477356 12.375 41.5 C12.12919189 40.81454102 11.88338379 40.12908203 11.63012695 39.42285156 C11.06955776 37.85712969 10.51401721 36.28960206 9.96240234 34.72070312 C8.8746274 31.64557274 7.76093563 28.5804752 6.64453125 25.515625 C3.37838202 16.52755574 3.37838202 16.52755574 1.85546875 12.296875 C1.52184326 11.37229492 1.18821777 10.44771484 0.84448242 9.49511719 C-1.17555955 3.52667864 -1.17555955 3.52667864 0 0 Z " fill="#8E784B" transform="translate(264,345)"/>
<path d="M0 0 C0.33 0 0.66 0 1 0 C1.91060364 9.62036828 2.12453809 19.15445742 2.0625 28.8125 C2.05746684 30.19856606 2.0529072 31.58463393 2.04882812 32.97070312 C2.03717953 36.31384975 2.02082429 39.65690011 2 43 C1.01 42.67 0.02 42.34 -1 42 C-1.02467467 36.34000977 -1.04284788 30.68005068 -1.05493164 25.02001953 C-1.05996787 23.09358169 -1.06679712 21.16714769 -1.07543945 19.24072266 C-1.08753608 16.47557632 -1.09323533 13.71048042 -1.09765625 10.9453125 C-1.10281754 10.0806839 -1.10797882 9.2160553 -1.11329651 8.32522583 C-1.11387171 2.22774341 -1.11387171 2.22774341 0 0 Z " fill="#9C8856" transform="translate(348,202)"/>
<path d="M0 0 C0.66 0.33 1.32 0.66 2 1 C0.99259766 1.79083984 0.99259766 1.79083984 -0.03515625 2.59765625 C-12.19716636 12.49988641 -23.01612356 23.83312934 -34 35 C-34.66 34.34 -35.32 33.68 -36 33 C-31.84712767 28.77276494 -27.68434136 24.55563756 -23.51220703 20.34741211 C-22.09539948 18.9155528 -20.68130055 17.4810079 -19.27001953 16.04370117 C-17.23662525 13.97376598 -15.19356618 11.91380302 -13.1484375 9.85546875 C-12.52319183 9.21473923 -11.89794617 8.5740097 -11.25375366 7.91386414 C-7.7846424 4.44344311 -4.68228989 1.76407512 0 0 Z " fill="#9D8755" transform="translate(290,140)"/>
<path d="M0 0 C0.33 0 0.66 0 1 0 C2.14678794 5.58525378 3.28587853 11.17200243 4.41796875 16.76025391 C4.80389384 18.65976944 5.19189227 20.558865 5.58203125 22.45751953 C6.14352689 25.19194602 6.69746665 27.9278128 7.25 30.6640625 C7.42499023 31.50804596 7.59998047 32.35202942 7.78027344 33.22158813 C8.64746055 37.55507003 9.20126259 41.55335463 9 46 C8.34 46 7.68 46 7 46 C6.82871582 45.16863525 6.65743164 44.33727051 6.48095703 43.48071289 C5.83665098 40.35511072 5.19172084 37.22963811 4.54638672 34.10424805 C4.2687982 32.75924646 3.99144849 31.41419555 3.71435547 30.0690918 C1.83165402 20.90696613 1.83165402 20.90696613 -0.18359375 11.7734375 C-1.90606936 3.81213873 -1.90606936 3.81213873 0 0 Z " fill="#8C7A4D" transform="translate(540,169)"/>
<path d="M0 0 C0.33 0 0.66 0 1 0 C1.33 13.2 1.66 26.4 2 40 C1.01 40 0.02 40 -1 40 C-0.98839844 39.21753906 -0.97679687 38.43507813 -0.96484375 37.62890625 C-0.95582031 36.61699219 -0.94679688 35.60507812 -0.9375 34.5625 C-0.92009766 33.04849609 -0.92009766 33.04849609 -0.90234375 31.50390625 C-0.71387324 29.05978933 -0.71387324 29.05978933 -2 28 C-2.25342236 23.69352364 -2.18522638 19.37554946 -2.1875 15.0625 C-2.20586914 13.23428711 -2.20586914 13.23428711 -2.22460938 11.36914062 C-2.22654297 10.20705078 -2.22847656 9.04496094 -2.23046875 7.84765625 C-2.23457764 6.77523682 -2.23868652 5.70281738 -2.24291992 4.59790039 C-2 2 -2 2 0 0 Z " fill="#96814F" transform="translate(393,283)"/>
<path d="M0 0 C0.99 0.33 1.98 0.66 3 1 C2.46109131 1.53367188 1.92218262 2.06734375 1.36694336 2.6171875 C-1.11226236 5.07539426 -3.58739599 7.53766366 -6.0625 10 C-6.91005859 10.83917969 -7.75761719 11.67835938 -8.63085938 12.54296875 C-13.09753553 16.99239906 -17.41958917 21.48555319 -21.48242188 26.30859375 C-23.76504039 28.8526705 -26.30898173 30.89969306 -29 33 C-27.46169105 29.53880486 -25.4272589 26.89922591 -23 24 C-22.5973291 23.51176758 -22.1946582 23.02353516 -21.77978516 22.52050781 C-17.50412911 17.41784787 -12.85579274 12.74117383 -8.125 8.0625 C-7.34125 7.28326172 -6.5575 6.50402344 -5.75 5.70117188 C-3.83561419 3.79845915 -1.91891966 1.89813829 0 0 Z " fill="#9C8755" transform="translate(252,175)"/>
<path d="M0 0 C0.66 0.66 1.32 1.32 2 2 C1.03900391 2.94359375 1.03900391 2.94359375 0.05859375 3.90625 C-4.5650024 8.48161191 -9.03489336 13.09599701 -13.26171875 18.0390625 C-16.34539793 21.5177298 -19.67551028 24.75322563 -23 28 C-23 23.68212477 -21.72925863 21.80610098 -18.84521484 18.61816406 C-17.97590332 17.75932617 -17.1065918 16.90048828 -16.2109375 16.015625 C-15.74765045 15.55516785 -15.2843634 15.09471069 -14.80703735 14.62030029 C-13.33434102 13.15874922 -11.85482597 11.70432832 -10.375 10.25 C-9.37193678 9.25697389 -8.36932743 8.26348911 -7.3671875 7.26953125 C-4.91669165 4.84102059 -2.4600333 2.41885325 0 0 Z " fill="#9D8856" transform="translate(202,226)"/>
<path d="M0 0 C0.33 0 0.66 0 1 0 C1 14.52 1 29.04 1 44 C0.67 44 0.34 44 0 44 C0 37.73 0 31.46 0 25 C-0.66 25 -1.32 25 -2 25 C-2.05397335 22.5622037 -2.09365616 20.12560315 -2.125 17.6875 C-2.14175781 16.99720703 -2.15851563 16.30691406 -2.17578125 15.59570312 C-2.21217794 11.82864604 -2.14378864 10.21568296 0 7 C-0.66 7 -1.32 7 -2 7 C-1.34 4.69 -0.68 2.38 0 0 Z " fill="#857243" transform="translate(123,349)"/>
<path d="M0 0 C5.50458716 -0.36697248 5.50458716 -0.36697248 7.6875 1.25 C8.120625 1.8275 8.55375 2.405 9 3 C9.7734375 3.8971875 9.7734375 3.8971875 10.5625 4.8125 C13.66653674 9.53603417 14.31919625 14.51379272 14.6875 20.0625 C14.77386719 21.24972656 14.86023438 22.43695313 14.94921875 23.66015625 C14.99467882 26.65003034 14.72569714 29.11358057 14 32 C13.67 32 13.34 32 13 32 C12.95101563 31.07316406 12.90203125 30.14632812 12.8515625 29.19140625 C12.73941406 27.39509766 12.73941406 27.39509766 12.625 25.5625 C12.55539062 24.36753906 12.48578125 23.17257813 12.4140625 21.94140625 C12.27742188 20.97074219 12.14078125 20.00007813 12 19 C11.34 18.67 10.68 18.34 10 18 C10.66 18 11.32 18 12 18 C11.40539047 16.08034691 10.79890739 14.16436921 10.1875 12.25 C9.85105469 11.18265625 9.51460938 10.1153125 9.16796875 9.015625 C8.06796255 6.17547521 7.05847401 4.2265127 5 2 C2.40144267 1.1957792 2.40144267 1.1957792 0 1 C0 0.67 0 0.34 0 0 Z " fill="#917B4F" transform="translate(333,172)"/>
<path d="M0 0 C0.680625 0.70125 1.36125 1.4025 2.0625 2.125 C8.47854858 8.46956057 14.92362963 12.88148925 23 17 C22.67 17.66 22.34 18.32 22 19 C13.3148823 16.77304674 5.6189725 10.9066537 0 4 C-0.33 3.01 -0.66 2.02 -1 1 C-0.67 0.67 -0.34 0.34 0 0 Z " fill="#83703E" transform="translate(249,412)"/>
<path d="M0 0 C0.64697266 1.8137207 0.64697266 1.8137207 1 4 C-0.81003295 6.29411153 -2.53275194 8.18464361 -4.625 10.1875 C-5.15996094 10.73341797 -5.69492188 11.27933594 -6.24609375 11.84179688 C-9.33457223 14.87391626 -11.49282254 16.70678214 -16 17 C-15.62488281 16.56429687 -15.24976563 16.12859375 -14.86328125 15.6796875 C-14.35152344 15.08414063 -13.83976563 14.48859375 -13.3125 13.875 C-12.76335937 13.23691406 -12.21421875 12.59882813 -11.6484375 11.94140625 C-10.21490384 10.25309765 -8.82412806 8.53916106 -7.4375 6.8125 C-5.13742445 4.15856667 -2.81213505 2.08901461 0 0 Z " fill="#B39C65" transform="translate(242,172)"/>
<path d="M0 0 C4.455 0.99 4.455 0.99 9 2 C9 3.32 9 4.64 9 6 C8 7 8 7 6.14233398 7.11352539 C5.35157471 7.10828857 4.56081543 7.10305176 3.74609375 7.09765625 C2.89208984 7.09443359 2.03808594 7.09121094 1.15820312 7.08789062 C0.26037109 7.07951172 -0.63746094 7.07113281 -1.5625 7.0625 C-2.46419922 7.05798828 -3.36589844 7.05347656 -4.29492188 7.04882812 C-6.53001314 7.03700225 -8.76497437 7.0205222 -11 7 C-11 6.34 -11 5.68 -11 5 C-5.06 5 0.88 5 7 5 C7 4.34 7 3.68 7 3 C4.69 2.67 2.38 2.34 0 2 C0 1.34 0 0.68 0 0 Z " fill="#89733E" transform="translate(417,475)"/>
<path d="M0 0 C0 4.91886814 -3.68826689 7.6051539 -7 11 C-9.27699716 13.08798002 -11.60502418 15.0449177 -14 17 C-14.66 16.67 -15.32 16.34 -16 16 C-10.96679794 10.22494276 -5.96260189 4.82082706 0 0 Z " fill="#A08A56" transform="translate(414,299)"/>
<path d="M0 0 C2.05715774 0.45460243 4.10269732 0.96135843 6.14453125 1.48046875 C6.14453125 1.81046875 6.14453125 2.14046875 6.14453125 2.48046875 C-2.48293455 2.68752793 -10.45175066 2.69509564 -18.85546875 0.48046875 C-13.44292178 -3.1278959 -6.18816714 -1.12589088 0 0 Z " fill="#6A5B39" transform="translate(481.85546875,339.51953125)"/>
<path d="M0 0 C0.66 0.66 1.32 1.32 2 2 C1.236875 2.4125 0.47375 2.825 -0.3125 3.25 C-3.00817132 5.00532086 -4.13987634 6.44232997 -6 9 C-7.65002828 10.35386936 -9.3174387 11.68678142 -11 13 C-12.35147138 14.31494512 -13.69112542 15.64264858 -15 17 C-15.66 16.34 -16.32 15.68 -17 15 C-14.73737364 12.67934614 -12.46356994 10.36996401 -10.1875 8.0625 C-9.54490234 7.40314453 -8.90230469 6.74378906 -8.24023438 6.06445312 C-7.61826172 5.43603516 -6.99628906 4.80761719 -6.35546875 4.16015625 C-5.49924927 3.28822632 -5.49924927 3.28822632 -4.62573242 2.39868164 C-3 1 -3 1 0 0 Z " fill="#947F50" transform="translate(140,293)"/>
<path d="M0 0 C1.83203125 1.5234375 1.83203125 1.5234375 3 3 C1.95199219 3.13277344 0.90398437 3.26554687 -0.17578125 3.40234375 C-1.55470778 3.58057235 -2.93361293 3.75896641 -4.3125 3.9375 C-5.00279297 4.02451172 -5.69308594 4.11152344 -6.40429688 4.20117188 C-9.40142288 4.59210135 -12.12450119 5.0415004 -15 6 C-15 5.34 -15 4.68 -15 4 C-15.66 3.67 -16.32 3.34 -17 3 C-11.68847709 -0.44531216 -6.17373144 -0.98857238 0 0 Z " fill="#85724C" transform="translate(174,273)"/>
<path d="M0 0 C0.66 0 1.32 0 2 0 C3.36216191 3.65667735 4.69352152 7.32305489 6 11 C6.2578125 11.72058594 6.515625 12.44117188 6.78125 13.18359375 C7.375 15 7.375 15 8 18 C7.34 18.99 6.68 19.98 6 21 C4.99263372 18.06497405 3.99539496 15.12660539 3 12.1875 C2.71382812 11.35412109 2.42765625 10.52074219 2.1328125 9.66210938 C1.72675781 8.45844727 1.72675781 8.45844727 1.3125 7.23046875 C1.06113281 6.49207764 0.80976563 5.75368652 0.55078125 4.99291992 C0 3 0 3 0 0 Z " fill="#917C4F" transform="translate(216,333)"/>
<path d="M0 0 C4.41464542 1.33640627 6.00090918 2.88582312 8.25 6.875 C8.75015625 7.73867188 9.2503125 8.60234375 9.765625 9.4921875 C10.85075472 11.69678648 11.53131205 13.60076409 12 16 C11.34 16.33 10.68 16.66 10 17 C9.52949219 16.08476562 9.05898437 15.16953125 8.57421875 14.2265625 C7.94571171 13.02583262 7.31678337 11.8253232 6.6875 10.625 C6.37876953 10.02171875 6.07003906 9.4184375 5.75195312 8.796875 C4.07390572 5.61741675 3.05193672 4.03462448 0 2 C0 1.34 0 0.68 0 0 Z " fill="#89754C" transform="translate(194,286)"/>
<path d="M0 0 C0.66 0 1.32 0 2 0 C0.87810771 6.99025195 -2.57668271 13.38013712 -8 18 C-8.33 17.01 -8.66 16.02 -9 15 C-7.1875 12.3125 -7.1875 12.3125 -5 10 C-4.34 10 -3.68 10 -3 10 C-2.814375 8.63875 -2.814375 8.63875 -2.625 7.25 C-2.07890323 4.41029677 -1.42736197 2.47409409 0 0 Z " fill="#877749" transform="translate(526,306)"/>
<path d="M0 0 C0.99 0 1.98 0 3 0 C3.11381955 6.76594019 2.88021369 13.28837062 2 20 C1.34 19.67 0.68 19.34 0 19 C0 12.73 0 6.46 0 0 Z " fill="#8F784C" transform="translate(391,195)"/>
<path d="M0 0 C2.46346397 0.39559275 4.91843393 0.81516987 7.375 1.25 C8.07367188 1.35957031 8.77234375 1.46914063 9.4921875 1.58203125 C14.6695235 2.52789071 14.6695235 2.52789071 16.4765625 5.109375 C16.64929688 5.73328125 16.82203125 6.3571875 17 7 C14 8 14 8 11 7 C11 6.01 11 5.02 11 4 C8.03 4 5.06 4 2 4 C1.34 2.68 0.68 1.36 0 0 Z " fill="#A78D55" transform="translate(139,423)"/>
<path d="M0 0 C0.66 0.33 1.32 0.66 2 1 C-0.09673203 2.84249206 -2.20153849 4.67393977 -4.3125 6.5 C-5.20485352 7.28697266 -5.20485352 7.28697266 -6.11523438 8.08984375 C-10.66015625 12 -10.66015625 12 -14 12 C-5.76061776 1.92020592 -5.76061776 1.92020592 0 0 Z " fill="#806F45" transform="translate(290,140)"/>
<path d="M0 0 C0.66 0 1.32 0 2 0 C1.9375 1.8125 1.9375 1.8125 1 4 C-2.4960903 5.81278756 -5.03981755 7 -9 7 C-9 6.34 -9 5.68 -9 5 C-8.01 4.34 -7.02 3.68 -6 3 C-6.33 2.34 -6.66 1.68 -7 1 C-5.5459375 1.0309375 -5.5459375 1.0309375 -4.0625 1.0625 C-1.12534105 1.35618499 -1.12534105 1.35618499 0 0 Z " fill="#8D7848" transform="translate(319,425)"/>
<path d="M0 0 C4.2479971 2.83199807 4.71003706 6.21672128 6 11 C6.38419998 12.99085446 6.74216322 14.98887313 7 17 C6.34 17.33 5.68 17.66 5 18 C4.87882813 17.43410156 4.75765625 16.86820312 4.6328125 16.28515625 C4.46523437 15.55167969 4.29765625 14.81820313 4.125 14.0625 C3.96257812 13.33160156 3.80015625 12.60070312 3.6328125 11.84765625 C3.17038477 9.79299706 3.17038477 9.79299706 1 9 C0.5859375 6.93359375 0.5859375 6.93359375 0.375 4.4375 C0.30023438 3.61121094 0.22546875 2.78492188 0.1484375 1.93359375 C0.09945312 1.29550781 0.05046875 0.65742188 0 0 Z " fill="#9C8753" transform="translate(223,354)"/>
<path d="M0 0 C2.01003635 3.01505452 2.99171541 5.57496212 4.125 9 C4.47820312 10.051875 4.83140625 11.10375 5.1953125 12.1875 C6 15 6 15 6 18 C5.34 18 4.68 18 4 18 C2.75628675 15.0150882 1.78256026 12.13024102 1 9 C0.62875 8.175 0.2575 7.35 -0.125 6.5 C-1.07733681 3.77903768 -0.98315966 2.65453108 0 0 Z " fill="#8C7A4B" transform="translate(258,327)"/>
<path d="M0 0 C-0.51776621 4.10447392 -2.64627444 5.95699523 -5.5625 8.75 C-6.80193359 9.94882813 -6.80193359 9.94882813 -8.06640625 11.171875 C-8.70449219 11.77515625 -9.34257812 12.3784375 -10 13 C-10 7.53073912 -7.11074003 4.88184743 -3.4375 1.171875 C-2 0 -2 0 0 0 Z " fill="#72633E" transform="translate(189,241)"/>
<path d="M0 0 C0.66 0.33 1.32 0.66 2 1 C-2.95 5.95 -7.9 10.9 -13 16 C-13.66 15.34 -14.32 14.68 -15 14 C-10.18808428 9.07559794 -5.29012124 4.40843437 0 0 Z " fill="#776743" transform="translate(220,209)"/>
<path d="M0 0 C5.28 0.66 10.56 1.32 16 2 C14 4 14 4 12.12060547 4.13525391 C11.37697754 4.08288574 10.63334961 4.03051758 9.8671875 3.9765625 C9.06152344 3.925 8.25585938 3.8734375 7.42578125 3.8203125 C6.58402344 3.75585938 5.74226563 3.69140625 4.875 3.625 C4.02550781 3.56828125 3.17601562 3.5115625 2.30078125 3.453125 C0.1998655 3.31149023 -1.90017334 3.15695674 -4 3 C-2.68 2.67 -1.36 2.34 0 2 C0 1.34 0 0.68 0 0 Z " fill="#73633F" transform="translate(466,169)"/>
<path d="M0 0 C0.66 0 1.32 0 2 0 C2.33 2.31 2.66 4.62 3 7 C3.66 7 4.32 7 5 7 C5.5345256 8.24420647 6.05208611 9.49570936 6.5625 10.75 C6.85253906 11.44609375 7.14257812 12.1421875 7.44140625 12.859375 C8.07831803 15.30012784 7.80248831 16.6403655 7 19 C4.92782515 15.89173772 3.71574645 12.98123641 2.375 9.5 C1.92898437 8.3553125 1.48296875 7.210625 1.0234375 6.03125 C0 3 0 3 0 0 Z " fill="#877447" transform="translate(229,372)"/>
<path d="M0 0 C0.33 0 0.66 0 1 0 C1 4.29 1 8.58 1 13 C0.34 13 -0.32 13 -1 13 C-1 16.63 -1 20.26 -1 24 C-1.33 24 -1.66 24 -2 24 C-2.09909001 16.25996896 -2.1692368 8.66499677 -1 1 C-0.67 0.67 -0.34 0.34 0 0 Z " fill="#958250" transform="translate(83,311)"/>
<path d="M0 0 C0.33 0.99 0.66 1.98 1 3 C-2.36356705 8.13669346 -7.19432999 12.24923316 -12 16 C-9.2728649 9.86394603 -4.35116339 5.03284566 0 0 Z " fill="#605334" transform="translate(235,192)"/>
<path d="M0 0 C5.50458716 -0.36697248 5.50458716 -0.36697248 7.6875 1.25 C8.120625 1.8275 8.55375 2.405 9 3 C9.53625 3.598125 10.0725 4.19625 10.625 4.8125 C12.36403948 7.57915371 12.79263734 9.75131826 13 13 C12.01 14.485 12.01 14.485 11 16 C10.81824219 15.32453125 10.63648438 14.6490625 10.44921875 13.953125 C10.07216797 12.61507812 10.07216797 12.61507812 9.6875 11.25 C9.44386719 10.36828125 9.20023437 9.4865625 8.94921875 8.578125 C7.96309408 5.8997617 6.91578829 4.10736711 5 2 C2.40144267 1.1957792 2.40144267 1.1957792 0 1 C0 0.67 0 0.34 0 0 Z " fill="#856E44" transform="translate(333,172)"/>
<path d="M0 0 C0.33 0 0.66 0 1 0 C1.53030068 2.43578787 2.04952312 4.87305975 2.5625 7.3125 C2.71396484 8.00279297 2.86542969 8.69308594 3.02148438 9.40429688 C3.71761569 12.75544066 4.10155309 14.69534072 3 18 C3 17.34 3 16.68 3 16 C2.34 16 1.68 16 1 16 C-0.86665742 12.10281829 -1.13965761 9.45915815 -0.625 5.1875 C-0.51414062 4.21167969 -0.40328125 3.23585938 -0.2890625 2.23046875 C-0.19367188 1.49441406 -0.09828125 0.75835937 0 0 Z " fill="#847044" transform="translate(124,393)"/>
<path d="M0 0 C0.33 0 0.66 0 1 0 C1.16955795 1.72888555 1.33551514 3.45812443 1.5 5.1875 C1.5928125 6.15042969 1.685625 7.11335938 1.78125 8.10546875 C1.98124844 10.75187667 2.03879183 13.34760865 2 16 C1.01 15.67 0.02 15.34 -1 15 C-1.02685412 12.68756208 -1.04632841 10.3750373 -1.0625 8.0625 C-1.07410156 6.77472656 -1.08570312 5.48695313 -1.09765625 4.16015625 C-1 1 -1 1 0 0 Z " fill="#A58954" transform="translate(122,322)"/>
<path d="M0 0 C1.06723961 3.46222615 1.10173486 6.64039266 1.0625 10.25 C1.05347656 11.32765625 1.04445313 12.4053125 1.03515625 13.515625 C1.02355469 14.33546875 1.01195312 15.1553125 1 16 C0.34 16 -0.32 16 -1 16 C-2.38226016 13.23547967 -2.09525387 10.9538637 -2.0625 7.875 C-2.05347656 6.77929688 -2.04445313 5.68359375 -2.03515625 4.5546875 C-2.02355469 3.71164063 -2.01195312 2.86859375 -2 2 C-1.34 2 -0.68 2 0 2 C0 1.34 0 0.68 0 0 Z " fill="#936F4A" transform="translate(393,178)"/>
<path d="M0 0 C0.66 0.33 1.32 0.66 2 1 C1.67 7.6 1.34 14.2 1 21 C0.67 21 0.34 21 0 21 C-0.19511725 18.25034772 -0.38136433 15.50057868 -0.5625 12.75 C-0.61857422 11.97269531 -0.67464844 11.19539062 -0.73242188 10.39453125 C-0.80493164 9.26337891 -0.80493164 9.26337891 -0.87890625 8.109375 C-0.9260376 7.41811523 -0.97316895 6.72685547 -1.02172852 6.01464844 C-0.99853136 3.86382928 -0.5995764 2.05915129 0 0 Z " fill="#87754A" transform="translate(124,158)"/>
<path d="M0 0 C0.33 0 0.66 0 1 0 C1.1946838 2.77050026 1.38102792 5.54113002 1.5625 8.3125 C1.61857422 9.09818359 1.67464844 9.88386719 1.73242188 10.69335938 C1.78076172 11.45068359 1.82910156 12.20800781 1.87890625 12.98828125 C1.94960327 14.03302612 1.94960327 14.03302612 2.02172852 15.09887695 C2 17 2 17 1 20 C0.34 20 -0.32 20 -1 20 C-0.67 13.4 -0.34 6.8 0 0 Z " fill="#816E43" transform="translate(347,430)"/>
<path d="M0 0 C0.99 0.33 1.98 0.66 3 1 C2.3203125 2.953125 2.3203125 2.953125 1 5 C-1.3828125 5.609375 -1.3828125 5.609375 -4.125 5.75 C-5.03507813 5.80671875 -5.94515625 5.8634375 -6.8828125 5.921875 C-7.58148438 5.94765625 -8.28015625 5.9734375 -9 6 C-9.33 5.34 -9.66 4.68 -10 4 C-6.7 3.34 -3.4 2.68 0 2 C0 1.34 0 0.68 0 0 Z " fill="#86744B" transform="translate(155,126)"/>
<path d="M0 0 C0.33 0.99 0.66 1.98 1 3 C-0.01320312 3.90492188 -0.01320312 3.90492188 -1.046875 4.828125 C-1.93890625 5.62734375 -2.8309375 6.4265625 -3.75 7.25 C-4.63171875 8.03890625 -5.5134375 8.8278125 -6.421875 9.640625 C-8.67866165 11.70592672 -10.85739926 13.81735064 -13 16 C-13.66 15.67 -14.32 15.34 -15 15 C-10.05 10.05 -5.1 5.1 0 0 Z " fill="#907E50" transform="translate(164,253)"/>
<path d="M0 0 C0 0.66 0 1.32 0 2 C-1.19625 2.12375 -2.3925 2.2475 -3.625 2.375 C-7.27596813 2.82325054 -10.54524899 3.70446837 -14 5 C-13 2 -13 2 -9.8125 0.25 C-6.26388754 -1.16504588 -3.72125326 -0.99838502 0 0 Z " fill="#77613F" transform="translate(312,131)"/>
<path d="M0 0 C4.64973854 0.44787324 6.37027468 2.02185597 9.3125 5.5625 C10.00988281 6.38878906 10.70726562 7.21507812 11.42578125 8.06640625 C11.94527344 8.70449219 12.46476563 9.34257812 13 10 C12.67 10.66 12.34 11.32 12 12 C11.60167969 11.59007812 11.20335937 11.18015625 10.79296875 10.7578125 C10.26316406 10.21898437 9.73335937 9.68015625 9.1875 9.125 C8.66542969 8.59132812 8.14335938 8.05765625 7.60546875 7.5078125 C5.86740096 5.79223439 5.86740096 5.79223439 3 4 C1.96352976 2.69481525 0.95577057 1.36538653 0 0 Z " fill="#584A2E" transform="translate(514,188)"/>
<path d="M0 0 C2.0625 0.4375 2.0625 0.4375 4 1 C3.2575 1.70125 2.515 2.4025 1.75 3.125 C-0.97817223 5.97718006 -2.91302954 8.6763063 -5 12 C-5.66 11.01 -6.32 10.02 -7 9 C-6.02180976 7.68677212 -5.0424189 6.37443848 -4.0625 5.0625 C-3.51722656 4.33160156 -2.97195312 3.60070312 -2.41015625 2.84765625 C-1 1 -1 1 0 0 Z " fill="#867548" transform="translate(135,135)"/>
<path d="M0 0 C0.33 0.99 0.66 1.98 1 3 C1.66 3 2.32 3 3 3 C2.67 6.96 2.34 10.92 2 15 C1.34 15 0.68 15 0 15 C0 10.05 0 5.1 0 0 Z " fill="#968150" transform="translate(121,280)"/>
<path d="M0 0 C0.91007812 0.00902344 1.82015625 0.01804687 2.7578125 0.02734375 C3.45648438 0.03894531 4.15515625 0.05054687 4.875 0.0625 C4.875 1.3825 4.875 2.7025 4.875 4.0625 C-3.69642857 3.20535714 -3.69642857 3.20535714 -7.125 1.0625 C-4.60024538 -0.19987731 -2.81299534 -0.03606404 0 0 Z " fill="#C7AF70" transform="translate(309.125,126.9375)"/>
<path d="M0 0 C5.28 0.66 10.56 1.32 16 2 C15.01 2.99 14.02 3.98 13 5 C10.08203125 4.85546875 10.08203125 4.85546875 6.8125 4.1875 C5.72582031 3.97480469 4.63914062 3.76210938 3.51953125 3.54296875 C2.27236328 3.27419922 2.27236328 3.27419922 1 3 C0.67 2.01 0.34 1.02 0 0 Z " fill="#AD9455" transform="translate(304,422)"/>
<path d="M0 0 C0.33 0.66 0.66 1.32 1 2 C-0.375 4 -0.375 4 -2 6 C-2.66 6 -3.32 6 -4 6 C-4 6.66 -4 7.32 -4 8 C-5.62626404 9.38232443 -7.2925002 10.71937515 -9 12 C-9.66 11.67 -10.32 11.34 -11 11 C-7.6189962 6.86378916 -4.33409466 3.18683431 0 0 Z " fill="#8F7E50" transform="translate(242,172)"/>
<path d="M0 0 C1.98983228 3.97966457 2.22400716 4.67675132 1.625 8.75 C1.51414062 9.54921875 1.40328125 10.3484375 1.2890625 11.171875 C1.19367188 11.77515625 1.09828125 12.3784375 1 13 C0.01 13.33 -0.98 13.66 -2 14 C-1.34 9.38 -0.68 4.76 0 0 Z " fill="#867246" transform="translate(80,396)"/>
<path d="M0 0 C1.57554035 2.88628401 2.46276373 5.53342384 3.125 8.75 C3.29257813 9.54921875 3.46015625 10.3484375 3.6328125 11.171875 C3.81457031 12.07679688 3.81457031 12.07679688 4 13 C3.01 13.495 3.01 13.495 2 14 C-1.62870159 4.58997722 -1.62870159 4.58997722 0 0 Z " fill="#948050" transform="translate(213,319)"/>
<path d="M0 0 C0.66 0 1.32 0 2 0 C2 3.96 2 7.92 2 12 C1.67 11.01 1.34 10.02 1 9 C0.34 9 -0.32 9 -1 9 C-1.09765625 2.84765625 -1.09765625 2.84765625 -1 1 C-0.67 0.67 -0.34 0.34 0 0 Z " fill="#947A4E" transform="translate(122,310)"/>
<path d="M0 0 C3.08842997 0.8940192 4.63399045 1.41771208 6.375 4.1875 C7.1567051 7.70517295 6.68853474 10.48847281 6 14 C5.67 14 5.34 14 5 14 C4.67 10.7 4.34 7.4 4 4 C2.68 4.33 1.36 4.66 0 5 C0.33 4.01 0.66 3.02 1 2 C0.67 1.34 0.34 0.68 0 0 Z " fill="#796842" transform="translate(254,136)"/>
<path d="M0 0 C0.33 0 0.66 0 1 0 C1.33 5.61 1.66 11.22 2 17 C1.34 17 0.68 17 0 17 C-0.89316269 11.06390334 -0.97040422 5.93024803 0 0 Z " fill="#7B693F" transform="translate(394,431)"/>
<path d="M0 0 C2.67927341 4.01891012 2.15601248 6.24161923 2 11 C1.01 11.33 0.02 11.66 -1 12 C-1.02698189 10.37509046 -1.04638757 8.75005367 -1.0625 7.125 C-1.07410156 6.22007812 -1.08570313 5.31515625 -1.09765625 4.3828125 C-1 2 -1 2 0 0 Z " fill="#98794C" transform="translate(392,271)"/>
<path d="M0 0 C2.39763185 2.39763185 2.34280586 3.33273498 2.625 6.625 C2.69976563 7.44226563 2.77453125 8.25953125 2.8515625 9.1015625 C2.92503906 10.04128906 2.92503906 10.04128906 3 11 C2.34 11 1.68 11 1 11 C0.57682292 8.98177083 0.15364583 6.96354167 -0.26953125 4.9453125 C-0.92308838 2.62953451 -0.92308838 2.62953451 -4 1 C-2.125 0.375 -2.125 0.375 0 0 Z " fill="#8F7B4D" transform="translate(537,158)"/>
<path d="M0 0 C2.6875 0.875 2.6875 0.875 5 2 C4.01 2.495 4.01 2.495 3 3 C2.67 3.99 2.34 4.98 2 6 C0.0625 5.6875 0.0625 5.6875 -2 5 C-2.33 4.01 -2.66 3.02 -3 2 C-2.01 1.34 -1.02 0.68 0 0 Z " fill="#998652" transform="translate(51,125)"/>
<path d="M0 0 C2.34914492 2.34914492 2.73140357 3.95679446 3.625 7.125 C3.88539063 8.03507812 4.14578125 8.94515625 4.4140625 9.8828125 C4.70410156 10.93082031 4.70410156 10.93082031 5 12 C4.01 11.67 3.02 11.34 2 11 C1.05078125 8.71484375 1.05078125 8.71484375 0.3125 5.9375 C0.06113281 5.01839844 -0.19023437 4.09929687 -0.44921875 3.15234375 C-0.63097656 2.44207031 -0.81273437 1.73179687 -1 1 C-0.67 0.67 -0.34 0.34 0 0 Z " fill="#8B7647" transform="translate(277,382)"/>
<path d="M0 0 C0.33 0 0.66 0 1 0 C2.20568053 4.67201205 2.09382426 9.21496292 2 14 C0.01163916 11.01745874 -0.34336635 9.86191192 -0.6875 6.4375 C-0.77386719 5.65246094 -0.86023438 4.86742187 -0.94921875 4.05859375 C-1 2 -1 2 0 0 Z " fill="#968251" transform="translate(540,169)"/>
<path d="M0 0 C3.38297413 0.17805127 4.76272061 0.78837244 7.3125 3.0625 C8.1478125 4.0215625 8.1478125 4.0215625 9 5 C8.01 5.495 8.01 5.495 7 6 C4.8359375 5.22265625 4.8359375 5.22265625 2.375 4.0625 C1.55773437 3.68222656 0.74046875 3.30195313 -0.1015625 2.91015625 C-0.72804688 2.60980469 -1.35453125 2.30945313 -2 2 C-1.34 1.34 -0.68 0.68 0 0 Z " fill="#725F3C" transform="translate(494,175)"/>
<path d="M0 0 C0.99 0.99 1.98 1.98 3 3 C2.74383716 7.01321783 1.82393555 9.3521289 0 13 C0 8.71 0 4.42 0 0 Z " fill="#A18452" transform="translate(121,339)"/>
<path d="M0 0 C3 1 3 1 4.25 3.25 C5.07700926 6.28236729 4.85394079 8.01120724 4 11 C1.6870518 8.6870518 1.50419025 7.52095125 0.875 4.375 C0.70742187 3.55773437 0.53984375 2.74046875 0.3671875 1.8984375 C0.24601563 1.27195312 0.12484375 0.64546875 0 0 Z " fill="#917E4C" transform="translate(208,310)"/>
<path d="M0 0 C0.33 0 0.66 0 1 0 C1 4.29 1 8.58 1 13 C0.01 13.495 0.01 13.495 -1 14 C-2.12029814 8.51053913 -1.79217969 5.16569441 0 0 Z " fill="#958357" transform="translate(349,248)"/>
<path d="M0 0 C0.66 0.33 1.32 0.66 2 1 C-0.07858979 3.18092036 -2.21856618 4.96390469 -4.6875 6.6875 C-5.62142578 7.34298828 -5.62142578 7.34298828 -6.57421875 8.01171875 C-7.04472656 8.33785156 -7.51523438 8.66398437 -8 9 C-8 6 -8 6 -6.8125 4.5 C-4.6460581 2.70708256 -2.503472 1.28383179 0 0 Z " fill="#796A41" transform="translate(149,284)"/>
<path d="M0 0 C1.051875 0.14695313 1.051875 0.14695313 2.125 0.296875 C3.176875 0.42835938 3.176875 0.42835938 4.25 0.5625 C6.125 1.046875 6.125 1.046875 8.125 3.046875 C4.82803895 4.14586202 3.72005097 3.91811944 0.4375 3.109375 C-0.77486328 2.81740234 -0.77486328 2.81740234 -2.01171875 2.51953125 C-2.93404297 2.28556641 -2.93404297 2.28556641 -3.875 2.046875 C-1.875 0.046875 -1.875 0.046875 0 0 Z " fill="#6D5D3A" transform="translate(484.875,171.953125)"/>
<path d="M0 0 C-0.66 1.32 -1.32 2.64 -2 4 C-3.65 3.67 -5.3 3.34 -7 3 C-6.01 2.67 -5.02 2.34 -4 2 C-4 1.34 -4 0.68 -4 0 C-5.32 -0.33 -6.64 -0.66 -8 -1 C-4.37673261 -2.2077558 -3.35853631 -1.54311128 0 0 Z " fill="#9A8654" transform="translate(318,127)"/>
<path d="M0 0 C0.66 0.66 1.32 1.32 2 2 C-0.3125 4.5 -0.3125 4.5 -3 7 C-3.99 7 -4.98 7 -6 7 C-4.02 4.69 -2.04 2.38 0 0 Z " fill="#887647" transform="translate(516,323)"/>
<path d="M0 0 C1.485 0.99 1.485 0.99 3 2 C3 2.66 3 3.32 3 4 C3.99 4.33 4.98 4.66 6 5 C6.6875 7.0625 6.6875 7.0625 7 9 C6.01 9.495 6.01 9.495 5 10 C4.15801693 8.90241493 3.32669329 7.79664683 2.5 6.6875 C2.0359375 6.07261719 1.571875 5.45773437 1.09375 4.82421875 C0 3 0 3 0 0 Z " fill="#90794D" transform="translate(231,269)"/>
<path d="M0 0 C2.74277578 3.19990508 4.6302836 6.00499382 6 10 C5.01 10 4.02 10 3 10 C0.96564469 6.27034861 0 4.33094958 0 0 Z " fill="#8E7C47" transform="translate(284,399)"/>
<path d="M0 0 C-2.85306797 2.32472205 -5.54074837 3.7508258 -9 5 C-9 4.01 -9 3.02 -9 2 C-3.375 -1.125 -3.375 -1.125 0 0 Z " fill="#786A41" transform="translate(409,329)"/>
<path d="M0 0 C0.99 0.33 1.98 0.66 3 1 C3.33 3.64 3.66 6.28 4 9 C3.01 9.495 3.01 9.495 2 10 C1.34 6.7 0.68 3.4 0 0 Z " fill="#977E53" transform="translate(76,145)"/>
<path d="M0 0 C0.99 0.66 1.98 1.32 3 2 C2.01 2.33 1.02 2.66 0 3 C0 3.99 0 4.98 0 6 C-0.99 6 -1.98 6 -3 6 C-3.33 4.68 -3.66 3.36 -4 2 C-2.68 1.34 -1.36 0.68 0 0 Z " fill="#8C7845" transform="translate(56,426)"/>
<path d="M0 0 C4.42857143 5.14285714 4.42857143 5.14285714 5 9 C2 8 2 8 0.25 5.625 C-1 3 -1 3 0 0 Z " fill="#8C7747" transform="translate(128,411)"/>
<path d="M0 0 C0.99 0.33 1.98 0.66 3 1 C2.67 3.97 2.34 6.94 2 10 C-0.4294516 6.3558226 -0.16179575 4.28758728 0 0 Z " fill="#9E7F56" transform="translate(391,247)"/>
<path d="M0 0 C2.91517292 1.07401108 4.77810176 1.77810176 7 4 C6.625 6.125 6.625 6.125 6 8 C3.38472619 5.63379989 1.73559438 3.057952 0 0 Z " fill="#75613E" transform="translate(530,204)"/>
<path d="M0 0 C2 3 2 3 1.625 6.1875 C1.41875 7.115625 1.2125 8.04375 1 9 C0.01 9.33 -0.98 9.66 -2 10 C-1.34 6.7 -0.68 3.4 0 0 Z " fill="#877546" transform="translate(345,451)"/>
<path d="M0 0 C2.9375 0.3125 2.9375 0.3125 4.9375 2.3125 C1.3075 2.6425 -2.3225 2.9725 -6.0625 3.3125 C-3.0625 0.3125 -3.0625 0.3125 0 0 Z " fill="#5F5031" transform="translate(303.0625,430.6875)"/>
<path d="M0 0 C3 2 3 2 3.51171875 4.3828125 C3.56972656 5.28773438 3.62773437 6.19265625 3.6875 7.125 C3.75324219 8.03507812 3.81898438 8.94515625 3.88671875 9.8828125 C3.92410156 10.58148438 3.96148437 11.28015625 4 12 C3.67 11.34 3.34 10.68 3 10 C2.34 9.67 1.68 9.34 1 9 C0.5859375 6.93359375 0.5859375 6.93359375 0.375 4.4375 C0.30023438 3.61121094 0.22546875 2.78492188 0.1484375 1.93359375 C0.09945312 1.29550781 0.05046875 0.65742188 0 0 Z " fill="#7C6D3C" transform="translate(223,354)"/>
<path d="M0 0 C0.66 0 1.32 0 2 0 C2 0.66 2 1.32 2 2 C2.66 2 3.32 2 4 2 C4.33 4.31 4.66 6.62 5 9 C4.34 9 3.68 9 3 9 C2.01 6.03 1.02 3.06 0 0 Z " fill="#98824E" transform="translate(272,374)"/>
<path d="M0 0 C0 3.57575896 -1.08840607 5.05295935 -3 8 C-4.32 7.67 -5.64 7.34 -7 7 C-4.69 4.69 -2.38 2.38 0 0 Z " fill="#948352" transform="translate(137,281)"/>
<path d="M0 0 C-1.47692308 4.67692308 -1.47692308 4.67692308 -4.125 6.3125 C-5.053125 6.6528125 -5.053125 6.6528125 -6 7 C-6 4 -6 4 -4.125 1.8125 C-2 0 -2 0 0 0 Z " fill="#948050" transform="translate(195,235)"/>
<path d="M0 0 C0.66 0 1.32 0 2 0 C3.16063604 4.25566547 2.76173392 7.6835078 2 12 C1.67 12 1.34 12 1 12 C0.67 8.04 0.34 4.08 0 0 Z " fill="#9A8341" transform="translate(391,216)"/>
<path d="M0 0 C0.99 0 1.98 0 3 0 C2.67 2.97 2.34 5.94 2 9 C1.34 8.67 0.68 8.34 0 8 C0 5.36 0 2.72 0 0 Z " fill="#988245" transform="translate(391,195)"/>
<path d="M0 0 C0.33 0 0.66 0 1 0 C2.25 6.625 2.25 6.625 0 10 C-0.19412181 8.52168779 -0.38012131 7.04230684 -0.5625 5.5625 C-0.66691406 4.73878906 -0.77132812 3.91507812 -0.87890625 3.06640625 C-0.91886719 2.38449219 -0.95882812 1.70257813 -1 1 C-0.67 0.67 -0.34 0.34 0 0 Z " fill="#988142" transform="translate(122,322)"/>
<path d="M0 0 C2.50298434 2.93828597 3.46930939 5.17902761 4 9 C3.01 8.67 2.02 8.34 1 8 C0.67 5.36 0.34 2.72 0 0 Z " fill="#897749" transform="translate(243,287)"/>
<path d="M0 0 C0.99 0.33 1.98 0.66 3 1 C2.67 3.64 2.34 6.28 2 9 C-0.29013653 5.5647952 -0.17842973 4.014669 0 0 Z " fill="#93704C" transform="translate(391,229)"/>
<path d="M0 0 C1.9375 0.625 1.9375 0.625 4 2 C4.75 5.125 4.75 5.125 5 8 C2.20127563 5.47211993 0.54226981 3.79588866 0 0 Z " fill="#7D6E44" transform="translate(540,216)"/>
<path d="M0 0 C0.33 1.32 0.66 2.64 1 4 C-0.32 4.99 -1.64 5.98 -3 7 C-3.66 6.67 -4.32 6.34 -5 6 C-3.35 4.02 -1.7 2.04 0 0 Z " fill="#9D7F59" transform="translate(200,215)"/>
<path d="M0 0 C1.98 0.66 3.96 1.32 6 2 C6 2.99 6 3.98 6 5 C3.08482708 3.92598892 1.22189824 3.22189824 -1 1 C-0.67 0.67 -0.34 0.34 0 0 Z " fill="#7A6940" transform="translate(504,180)"/>
<path d="M0 0 C0.66 1.32 1.32 2.64 2 4 C0.35 5.65 -1.3 7.3 -3 9 C-3 5.30581799 -1.71820705 3.22163822 0 0 Z " fill="#836F43" transform="translate(77,410)"/>
<path d="M0 0 C0.99 0.33 1.98 0.66 3 1 C4.1875 4.0625 4.1875 4.0625 5 7 C4.01 7.495 4.01 7.495 3 8 C0 2.25 0 2.25 0 0 Z " fill="#8B7849" transform="translate(239,397)"/>
<path d="M0 0 C0 0.66 0 1.32 0 2 C-1.8125 3.6875 -1.8125 3.6875 -4 5 C-4.99 4.67 -5.98 4.34 -7 4 C-3.375 0 -3.375 0 0 0 Z " fill="#796740" transform="translate(158,278)"/>
<path d="M0 0 C0.33 0.66 0.66 1.32 1 2 C1.66 2 2.32 2 3 2 C3 3.98 3 5.96 3 8 C2.34 8 1.68 8 1 8 C-0.35439668 5.29120665 -0.06501451 2.99066732 0 0 Z " fill="#B08458" transform="translate(391,186)"/>
<path d="M0 0 C-0.33 0.66 -0.66 1.32 -1 2 C-3.97 2 -6.94 2 -10 2 C-9 0 -9 0 -7.25 -0.6875 C-4.60760177 -1.05449975 -2.57327078 -0.64331769 0 0 Z " fill="#635638" transform="translate(63,131)"/>
<path d="M0 0 C0.66 0 1.32 0 2 0 C1.67 0.66 1.34 1.32 1 2 C0.67 1.34 0.34 0.68 0 0 Z " fill="#7E542A" transform="translate(206,312)"/>
<path d="M0 0 C2 1 2 1 2 1 Z " fill="#7D3E3E" transform="translate(511,303)"/>
<path d="M0 0 C2 1 2 1 2 1 Z " fill="#7D3E3E" transform="translate(488,303)"/>
<path d="M0 0 C2 1 2 1 2 1 Z " fill="#7D3E3E" transform="translate(322,166)"/>
<path d="M0 0 C2 1 2 1 2 1 Z " fill="#7D3E3E" transform="translate(317,165)"/>
<path d="" fill="#818100" transform="translate(0,0)"/>
<path d="M0 0 C2 1 2 1 2 1 Z " fill="#7D3E3E" transform="translate(257,123)"/>
<path d="" fill="#818100" transform="translate(0,0)"/>
</svg>
